<?xml version="1.0" encoding="UTF-8" standalone="no"?>
<svg
   xmlns:dc="http://purl.org/dc/elements/1.1/"
   xmlns:cc="http://creativecommons.org/ns#"
   xmlns:rdf="http://www.w3.org/1999/02/22-rdf-syntax-ns#"
   xmlns:svg="http://www.w3.org/2000/svg"
   xmlns="http://www.w3.org/2000/svg"
   id="svg8"
   version="1.1"
   viewBox="0 0 210 297"
   height="297mm"
   width="210mm">
  <defs
     id="defs2" />
  <metadata
     id="metadata5">
    <rdf:RDF>
      <cc:Work
         rdf:about="">
        <dc:format>image/svg+xml</dc:format>
        <dc:type
           rdf:resource="http://purl.org/dc/dcmitype/StillImage" />
        <dc:title></dc:title>
      </cc:Work>
    </rdf:RDF>
  </metadata>
  <g
     id="layer1">
    <path
       transform="scale(0.26458333)"
       id="path821"
       d="m 223.1821,584.87686 c -9.22217,-0.67314 -17.67176,-5.34581 -23.22085,-12.84126 -2.06646,-2.79127 -3.89853,-6.47997 -4.85519,-9.77542 -2.51882,-8.6768 -1.27338,-17.95328 3.42885,-25.53916 5.26749,-8.49779 14.19969,-14.01961 24.11148,-14.90554 1.32251,-0.1182 4.31987,-0.11831 5.58036,-2e-4 8.75955,0.8208 16.548,5.02283 22.00436,11.87182 5.37509,6.74697 7.7525,15.55793 6.51682,24.15207 -1.24461,8.65626 -6.0869,16.47325 -13.31453,21.49385 -4.50786,3.13134 -9.81925,5.02946 -15.42987,5.51414 -0.94271,0.0814 -3.86593,0.0994 -4.82143,0.0297 z m 4.91519,-2.26691 c 4.99105,-0.39606 9.75457,-2.05314 13.96874,-4.85929 1.74546,-1.16228 3.00241,-2.19401 4.51173,-3.70333 4.8024,-4.8024 7.64099,-10.70848 8.49804,-17.68137 0.1707,-1.38882 0.1421,-5.28646 -0.0495,-6.74108 -0.8669,-6.58252 -3.59684,-12.29429 -8.10744,-16.9629 -4.99481,-5.1698 -11.58104,-8.2819 -18.81868,-8.89213 -1.70688,-0.14392 -4.83289,-0.0582 -6.43596,0.17643 -3.44928,0.5049 -6.3443,1.4223 -9.41965,2.985 -2.55991,1.30079 -4.92926,3.00711 -7.08755,5.10421 -4.3225,4.19995 -7.25905,9.59721 -8.39577,15.43108 -0.43399,2.22735 -0.49936,3.00582 -0.49242,5.86367 0.005,2.2151 0.0368,2.83586 0.19775,3.90379 0.97565,6.47489 3.66196,11.95839 8.0987,16.53172 6.12488,6.31345 14.71921,9.54352 23.53198,8.8442 z"
       style="opacity:1;fill:#000000;fill-opacity:1;fill-rule:evenodd;stroke:#000000;stroke-width:0.04464286;stroke-miterlimit:4;stroke-dasharray:none;stroke-opacity:1" />
  </g>
</svg>
